<svg width="1600" height="1200" viewBox="0 0 1600 1200" fill="none" xmlns="http://www.w3.org/2000/svg">
  <rect width="1600" height="1200" fill="#F4F0E8"/>
  <path d="M160 980C340 725 550 670 790 810C1015 940 1210 845 1440 550" stroke="#111111" strokeWidth="28" strokeLinecap="round"/>
  <rect x="220" y="170" width="350" height="450" rx="26" fill="#111111"/>
  <rect x="270" y="235" width="250" height="28" rx="14" fill="#F4F0E8"/>
  <rect x="270" y="310" width="190" height="28" rx="14" fill="#F4F0E8" opacity=".7"/>
  <rect x="270" y="385" width="230" height="28" rx="14" fill="#F4F0E8" opacity=".45"/>
  <rect x="760" y="165" width="590" height="390" rx="34" fill="#2244ec"/>
  <circle cx="950" cy="360" r="105" fill="#F7D06B"/>
  <rect x="1040" y="700" width="280" height="220" rx="28" fill="#FFFFFF"/>
  <path d="M1110 810H1250M1110 865H1205" stroke="#111111" strokeWidth="18" strokeLinecap="round"/>
  <circle cx="1330" cy="240" r="70" fill="#FF7A59"/>
  <circle cx="655" cy="735" r="82" fill="#34D399"/>
</svg>
